HIERARCHY
ROOT Hips
{
    OFFSET 0.000000 0.000000 0.000000
    CHANNELS 6 Xposition Yposition Zposition Zrotation Xrotation Yrotation
    JOINT Spine
    {
        OFFSET -0.000000 7.246840 0.000000
        CHANNELS 3 Zrotation Xrotation Yrotation
        JOINT Spine1
        {
            OFFSET -0.000000 20.289354 0.000000
            CHANNELS 3 Zrotation Xrotation Yrotation
            JOINT Neck
            {
                OFFSET -0.000000 20.206032 1.836912
                CHANNELS 3 Zrotation Xrotation Yrotation
                JOINT Head
                {
                    OFFSET -0.000000 12.372654 -1.767522
                    CHANNELS 3 Zrotation Xrotation Yrotation
                    End Site
                    {
                        OFFSET -0.000000 22.094025 0.000000
                    }
                }
            }
            JOINT LeftShoulder
            {
                OFFSET 3.465871 17.201674 -0.568930
                CHANNELS 3 Zrotation Xrotation Yrotation
                JOINT LeftArm
                {
                    OFFSET 14.070313 0.000000 0.000000
                    CHANNELS 3 Zrotation Xrotation Yrotation
                    JOINT LeftForeArm
                    {
                        OFFSET 26.549477 0.000000 0.000000
                        CHANNELS 3 Zrotation Xrotation Yrotation
                        JOINT LeftHand
                        {
                            OFFSET 18.880413 0.000000 0.000000
                            CHANNELS 3 Zrotation Xrotation Yrotation
                            End Site
                            {
                                OFFSET 13.256415 0.000000 0.000000
                            }
                        }
                    }
                }
            }
            JOINT RightShoulder
            {
                OFFSET -3.526370 17.201674 -0.568930
                CHANNELS 3 Zrotation Xrotation Yrotation
                JOINT RightArm
                {
                    OFFSET -14.070313 0.000000 0.000000
                    CHANNELS 3 Zrotation Xrotation Yrotation
                    JOINT RightForeArm
                    {
                        OFFSET -26.549477 0.000000 0.000000
                        CHANNELS 3 Zrotation Xrotation Yrotation
                        JOINT RightHand
                        {
                            OFFSET -18.880413 0.000000 0.000000
                            CHANNELS 3 Zrotation Xrotation Yrotation
                            End Site
                            {
                                OFFSET -13.256415 0.000000 0.000000
                            }
                        }
                    }
                }
            }
        }
    }
    JOINT LeftUpLeg
    {
        OFFSET 8.837609 0.000000 0.000000
        CHANNELS 3 Zrotation Xrotation Yrotation
        JOINT LeftLeg
        {
            OFFSET -0.000000 -41.345005 0.000000
            CHANNELS 3 Zrotation Xrotation Yrotation
            JOINT LeftFoot
            {
                OFFSET -0.000000 -35.500874 0.000000
                CHANNELS 3 Zrotation Xrotation Yrotation
                JOINT LeftToeBase
                {
                    OFFSET -0.000000 -5.744446 13.256415
                    CHANNELS 3 Zrotation Xrotation Yrotation
                    End Site
                    {
                        OFFSET -0.000000 0.000000 3.535044
                    }
                }
            }
        }
    }
    JOINT RightUpLeg
    {
        OFFSET -8.837609 0.000000 0.000000
        CHANNELS 3 Zrotation Xrotation Yrotation
        JOINT RightLeg
        {
            OFFSET -0.000000 -41.345005 0.000000
            CHANNELS 3 Zrotation Xrotation Yrotation
            JOINT RightFoot
            {
                OFFSET -0.000000 -35.500874 0.000000
                CHANNELS 3 Zrotation Xrotation Yrotation
                JOINT RightToeBase
                {
                    OFFSET -0.000000 -5.744446 13.256415
                    CHANNELS 3 Zrotation Xrotation Yrotation
                    End Site
                    {
                        OFFSET -0.000000 0.000000 3.535044
                    }
                }
            }
        }
    }
}
MOTION
Frames:    5
Frame Time:    0.010000
3.868470    90.150459    23.801895    6.242634    9.040764    28.695885    -2.693455    -1.280344    5.592430    -5.741999    3.726984    5.809484    5.176267    25.402231    -24.643152    18.576414    -28.183268    -18.227682    8.464610    4.686297    10.865407    -80.456909    16.022116    -0.979611    12.629657    -28.522520    -69.965919    -1.421182    -20.206823    -19.811131    -3.956812    -2.206411    19.434414    38.335052    9.043715    21.084248    -21.869238    -18.239986    33.874462    -20.589947    -13.507437    10.036611    -5.589760    -18.045034    -4.889404    -0.279407    24.361448    -3.079996    -4.608218    4.878498    -6.047857    0.686275    -17.151115    -1.086625    -8.887505    -10.867133    -23.551981    -6.674328    26.588236    2.683071    5.895244    5.999565    -2.878839    0.611470    -12.137430    -1.274499    
4.098988    89.643570    23.764948    6.748979    8.484127    25.348898    -2.807657    -0.973470    6.082145    -5.410323    3.746120    6.283051    4.324806    24.600706    -23.546917    17.071327    -26.900181    -17.941412    8.111932    4.564402    11.155107    -80.418587    15.269495    -0.878007    12.684443    -29.531462    -68.339165    -1.481158    -21.487141    -20.009054    -3.577821    -2.400592    19.631336    38.481071    10.115520    22.019907    -21.492104    -18.565504    33.006466    -21.253170    -14.102309    9.558039    -5.249056    -18.177443    -5.937386    -0.666172    24.729973    -4.394482    -5.120704    5.287174    -5.037854    0.540072    -15.819877    -0.845463    -9.101488    -10.587277    -24.127090    -6.555592    26.800545    2.647503    5.510383    5.675845    -4.678782    0.508663    -13.221200    -1.077051    
4.266810    89.010857    23.694378    6.979472    8.003595    22.495790    -2.737931    -0.986898    6.231136    -5.124979    3.959887    6.432003    3.275832    24.280645    -22.212704    16.150198    -26.039848    -17.091038    7.812078    4.433469    11.392866    -80.506271    14.237027    -0.740092    12.737082    -30.213491    -66.566933    -1.147437    -22.503782    -20.025000    -3.123394    -2.443781    19.993082    38.548664    11.061982    23.070469    -21.023113    -19.102661    32.351055    -21.771341    -14.832613    8.861026    -4.966650    -18.857718    -6.935917    -0.542050    25.974880    -5.658172    -5.464515    6.008776    -5.373845    0.436159    -13.587875    -0.670441    -9.194902    -10.447896    -24.460213    -6.313448    27.087545    2.726753    5.725453    5.996594    -6.110975    0.622941    -15.040962    -1.355822    
4.435944    88.283333    23.671967    7.160784    7.549902    19.747412    -2.904328    -1.246197    6.353519    -4.354797    4.331108    6.549853    2.320626    24.285933    -20.987547    15.053157    -25.640823    -16.323996    7.290304    4.080867    11.606396    -80.572945    13.609591    -0.448081    12.425666    -30.762590    -64.753181    0.144364    -23.749516    -20.211378    -2.952715    -2.607566    20.165350    39.118534    11.832180    23.869276    -20.321180    -19.741304    32.369781    -22.355003    -15.601553    8.183774    -4.534513    -19.444464    -7.702358    -0.619176    27.348068    -7.520374    -5.318189    6.833286    -5.496601    0.392613    -12.090202    -0.596479    -9.308564    -10.270839    -24.320641    -5.879979    27.379236    3.481628    8.584127    4.784946    -6.793459    0.325170    -20.690550    -0.778635    
4.646805    87.463554    23.705389    7.427593    6.950781    17.066278    -3.100330    -1.567205    6.433393    -3.634789    4.966145    6.633451    1.426076    24.376734    -19.638184    13.978233    -25.428469    -15.384808    6.810678    3.825784    11.696396    -80.624046    12.951472    -0.196385    11.228371    -31.199911    -63.545372    2.614756    -25.471010    -20.488516    -2.764998    -2.828924    20.147150    39.949528    12.543235    24.597816    -19.411049    -20.342129    32.808086    -23.376173    -16.376740    7.699861    -4.168373    -19.843477    -8.186813    -0.642585    29.066154    -9.071276    -4.055585    7.453740    -6.107300    0.043811    -11.467848    -0.066243    -9.508812    -9.824152    -23.717831    -5.378593    27.398373    3.583964    7.600281    2.179193    -4.798746    0.370846    -19.328409    -0.866460    
